<svg width="18" height="18" viewBox="0 0 18 18" fill="none" xmlns="http://www.w3.org/2000/svg">
<g clip-path="url(#clip0_145_42)">
<path d="M9.25 0.721688L16.0442 4.64434C16.1989 4.73365 16.2942 4.89872 16.2942 5.07735V12.9226C16.2942 13.1013 16.1989 13.2663 16.0442 13.3557L9.25 17.2783C9.0953 17.3676 8.9047 17.3676 8.75 17.2783L1.95577 13.3557C1.80107 13.2663 1.70577 13.1013 1.70577 12.9226V5.07735C1.70577 4.89872 1.80107 4.73365 1.95577 4.64434L8.75 0.721688C8.9047 0.632372 9.0953 0.632372 9.25 0.721688Z" fill="#131C35" stroke="black"/>
<path d="M9.43301 1.75L15.4952 12.25C15.6876 12.5833 15.4471 13 15.0622 13H2.93782C2.55292 13 2.31236 12.5833 2.50481 12.25L8.56699 1.75C8.75944 1.41667 9.24056 1.41667 9.43301 1.75Z" stroke="black"/>
<path d="M7.21 11V10.358C7.348 10.146 7.482 9.923 7.612 9.689C7.742 9.455 7.859 9.22 7.963 8.984C8.069 8.746 8.153 8.516 8.215 8.294C8.277 8.072 8.308 7.868 8.308 7.682C8.308 7.55 8.295 7.427 8.269 7.313C8.243 7.199 8.184 7.142 8.092 7.142C8 7.142 7.941 7.199 7.915 7.313C7.889 7.425 7.876 7.548 7.876 7.682V7.988H7.228V7.682C7.228 7.506 7.243 7.348 7.273 7.208C7.305 7.066 7.355 6.946 7.423 6.848C7.491 6.748 7.58 6.672 7.69 6.62C7.8 6.568 7.934 6.542 8.092 6.542C8.25 6.542 8.384 6.568 8.494 6.62C8.604 6.672 8.693 6.746 8.761 6.842C8.829 6.938 8.878 7.054 8.908 7.19C8.94 7.324 8.956 7.474 8.956 7.64C8.956 7.838 8.926 8.052 8.866 8.282C8.808 8.51 8.73 8.745 8.632 8.987C8.536 9.227 8.428 9.464 8.308 9.698C8.188 9.93 8.066 10.15 7.942 10.358H8.968V11H7.21ZM10.2417 11.048C10.0577 11.048 9.90069 11.006 9.77069 10.922C9.64269 10.838 9.54469 10.724 9.47669 10.58C9.41069 10.434 9.37769 10.272 9.37769 10.094V7.496C9.37769 7.316 9.41169 7.154 9.47969 7.01C9.54969 6.866 9.64969 6.752 9.77969 6.668C9.90969 6.584 10.0637 6.542 10.2417 6.542C10.4217 6.542 10.5757 6.585 10.7037 6.671C10.8337 6.755 10.9327 6.869 11.0007 7.013C11.0707 7.157 11.1057 7.318 11.1057 7.496V10.094C11.1057 10.272 11.0707 10.434 11.0007 10.58C10.9307 10.724 10.8307 10.838 10.7007 10.922C10.5727 11.006 10.4197 11.048 10.2417 11.048ZM10.2417 10.418C10.3177 10.418 10.3727 10.386 10.4067 10.322C10.4407 10.256 10.4577 10.18 10.4577 10.094V7.496C10.4577 7.408 10.4407 7.332 10.4067 7.268C10.3727 7.204 10.3177 7.172 10.2417 7.172C10.1657 7.172 10.1107 7.206 10.0767 7.274C10.0427 7.34 10.0257 7.414 10.0257 7.496V10.094C10.0257 10.18 10.0427 10.256 10.0767 10.322C10.1107 10.386 10.1657 10.418 10.2417 10.418Z" fill="white"/>
</g>
<defs>
<clipPath id="clip0_145_42">
<rect width="18" height="18" rx="1" fill="white"/>
</clipPath>
</defs>
</svg>
